<?xml version="1.0" encoding="iso-8859-1"?>
<!-- Uploaded to: SVG Repo, www.svgrepo.com, Generator: SVG Repo Mixer Tools -->
<!DOCTYPE svg PUBLIC "-//W3C//DTD SVG 1.1//EN" "http://www.w3.org/Graphics/SVG/1.1/DTD/svg11.dtd">
<svg fill="white" version="1.1" id="Capa_1" xmlns="http://www.w3.org/2000/svg" xmlns:xlink="http://www.w3.org/1999/xlink" 
	 width="800px" height="800px" viewBox="0 0 124 124" xml:space="preserve">
<g>
	<path d="M6,123.15h112c3.3,0,6-2.7,6-6v-12c0-3.3-2.7-6-6-6H6c-3.3,0-6,2.7-6,6v12C0,120.45,2.6,123.15,6,123.15z"/>
	<path d="M70.4,0.85H53.5c-3.4,0-6.2,2.8-6.2,6.2v25c0,3.4-2.8,6.2-6.2,6.2H30.3c-5.2,0-8.1,6-4.9,10.1l31.1,40
		c2.5,3.199,7.4,3.199,9.9,0l32-40c3.199-4.1,0.3-10.1-5-10.1H82.8c-3.399,0-6.2-2.8-6.2-6.2v-25C76.6,3.65,73.8,0.85,70.4,0.85z"/>
</g>
</svg>