<svg data-v-2023d0f1="" xmlns="http://www.w3.org/2000/svg" width="48" height="48" fill="none" viewBox="0 0 46 44" class=""><path fill="#949494" fill-rule="evenodd" d="m23.66 5.278-17.9 12.08v25.507h10.08v-10.44a5.04 5.04 0 0 1 5.04-5.04h6.36a5.04 5.04 0 0 1 5.04 5.04v4.38h-3.36v-4.38a1.68 1.68 0 0 0-1.68-1.68h-6.36a1.68 1.68 0 0 0-1.68 1.68v11.16a2.64 2.64 0 0 1-2.64 2.64H5.04a2.64 2.64 0 0 1-2.64-2.64v-26.61a2.64 2.64 0 0 1 1.163-2.188L22.437 2.05a2.16 2.16 0 0 1 2.382-.023L44.514 14.77a2.64 2.64 0 0 1 1.206 2.216v26.598a2.64 2.64 0 0 1-2.64 2.64H30.6v-3.36h11.76V17.379z" clip-rule="evenodd"></path><path fill="#949494" d="M32.4 44.545a1.68 1.68 0 1 1-3.36 0 1.68 1.68 0 0 1 3.36 0M32.28 36.745a1.68 1.68 0 1 1-3.36 0 1.68 1.68 0 0 1 3.36 0"></path></svg>