<svg data-v-9b3bcec9="" width="44" height="38" viewBox="0 0 44 38" fill="currentColor" xmlns="http://www.w3.org/2000/svg"><path fill-rule="evenodd" clip-rule="evenodd" d="M11 37.7001H33C39.6 37.7001 44 34.4001 44 26.7001V11.3C44 3.60005 39.6 0.300049 33 0.300049H11C4.4 0.300049 0 3.60005 0 11.3V26.7001C0 34.4001 4.4 37.7001 11 37.7001ZM16.8498 19.1804C18.2798 20.3464 20.1498 20.9184 21.9978 20.9184C23.8458 20.9184 25.7158 20.3464 27.1238 19.1804L34.0098 13.6804C34.7358 13.1304 34.8458 12.0744 34.2738 11.3704C33.7238 10.6444 32.6678 10.5344 31.9638 11.1064L25.0778 16.6064C23.4058 17.9484 20.5678 17.9484 18.8958 16.6064L12.0098 11.1064C11.6667 10.8572 11.2406 10.7501 10.8204 10.8073C10.4002 10.8646 10.0184 11.0819 9.7545 11.4139C9.49063 11.7459 9.3651 12.1669 9.40409 12.5892C9.44309 13.0115 9.6436 13.4024 9.96381 13.6804L16.8498 19.1804Z" fill="white"></path></svg>